<?xml version="1.0" standalone="no"?>
<!DOCTYPE svg PUBLIC "-//W3C//DTD SVG 20010904//EN"
 "http://www.w3.org/TR/2001/REC-SVG-20010904/DTD/svg10.dtd">
<svg version="1.0" xmlns="http://www.w3.org/2000/svg"
 width="46.000000pt" height="57.000000pt" viewBox="0 0 46.000000 57.000000"
 preserveAspectRatio="xMidYMid meet">
<metadata>
Created by potrace 1.12, written by Peter Selinger 2001-2015
</metadata>
<g transform="translate(0.000000,57.000000) scale(0.100000,-0.100000)"
fill="#000000" stroke="none">
<path d="M0 285 l0 -285 230 0 230 0 0 285 0 285 -230 0 -230 0 0 -285z m320
221 c0 -2 -13 -36 -29 -75 l-29 -71 54 0 c30 0 54 -4 54 -8 0 -5 -20 -31 -45
-58 -25 -27 -45 -54 -45 -61 0 -7 -11 -20 -25 -29 -14 -9 -24 -19 -22 -21 3
-2 -7 -16 -22 -31 -14 -15 -31 -37 -37 -47 -23 -40 -26 -4 -5 73 26 99 26 102
-4 102 -30 0 -30 -6 -5 120 11 56 20 103 20 106 0 2 32 4 70 4 39 0 70 -2 70
-4z"/>
</g>
</svg>
